<svg xmlns="http://www.w3.org/2000/svg" xmlns:xlink="http://www.w3.org/1999/xlink" contentStyleType="text/css" data-diagram-type="CLASS" height="1714px" preserveAspectRatio="none" style="width:1091px;height:1714px;background:#FFFFFF;" version="1.1" viewBox="0 0 1091 1714" width="1091px" zoomAndPan="magnify"><defs/><g><!--class Users--><g class="entity" data-entity="Users" data-source-line="9" data-uid="ent0002" id="entity_Users"><rect fill="#F1F1F1" height="311.8125" rx="2.5" ry="2.5" style="stroke:#181818;stroke-width:0.5;" width="268.1152" x="7" y="280.39"/><ellipse cx="118.0566" cy="296.39" fill="#ADD1B2" rx="11" ry="11" style="stroke:#181818;stroke-width:1;"/><path d="M121.6709,302.89 L113.9512,302.89 L113.9512,290.4969 L121.6709,290.4969 L121.6709,292.6551 L116.3999,292.6551 L116.3999,295.328 L121.1729,295.328 L121.1729,297.4862 L116.3999,297.4862 L116.3999,300.7318 L121.6709,300.7318 Z " fill="#000000"/><text fill="#000000" font-family="sans-serif" font-size="14" lengthAdjust="spacing" textLength="37.502" x="138.5566" y="301.681">Users</text><line style="stroke:#181818;stroke-width:0.5;" x1="8" x2="274.1152" y1="312.39" y2="312.39"/><ellipse cx="18" cy="326.1341" fill="#000000" rx="3" ry="3" style="stroke:#000000;stroke-width:1;"/><text fill="#000000" font-family="sans-serif" font-size="14" lengthAdjust="spacing" textLength="202.7129" x="27" y="329.9252">user_id : number &#171;generated&#187;</text><ellipse cx="18" cy="342.6224" fill="#000000" rx="3" ry="3" style="stroke:#000000;stroke-width:1;"/><text fill="#000000" font-family="sans-serif" font-size="14" lengthAdjust="spacing" textLength="183.0664" x="27" y="346.4134">company_id : number &#171;FK&#187;</text><text fill="#000000" font-family="sans-serif" font-size="14" lengthAdjust="spacing" textLength="4.4297" x="27" y="362.9017">&#160;</text><text fill="#000000" font-family="sans-serif" font-size="14" lengthAdjust="spacing" textLength="228.0127" x="27" y="379.39">status : enum {active, suspended}</text><text fill="#000000" font-family="sans-serif" font-size="14" lengthAdjust="spacing" textLength="4.4297" x="27" y="395.8783">&#160;</text><text fill="#000000" font-family="sans-serif" font-size="14" lengthAdjust="spacing" textLength="124.4414" x="27" y="412.3666">first_name : string</text><text fill="#000000" font-family="sans-serif" font-size="14" lengthAdjust="spacing" textLength="121.2969" x="27" y="428.8548">last_name : string</text><text fill="#000000" font-family="sans-serif" font-size="14" lengthAdjust="spacing" textLength="155.2305" x="27" y="445.3431">phone_number : string</text><text fill="#000000" font-family="sans-serif" font-size="14" lengthAdjust="spacing" textLength="4.4297" x="27" y="461.8314">&#160;</text><text fill="#000000" font-family="sans-serif" font-size="14" lengthAdjust="spacing" textLength="89.5508" x="27" y="478.3197">email : string</text><text fill="#000000" font-family="sans-serif" font-size="14" lengthAdjust="spacing" textLength="117.5986" x="27" y="494.808">password : string</text><text fill="#000000" font-family="sans-serif" font-size="14" lengthAdjust="spacing" textLength="4.4297" x="27" y="511.2963">&#160;</text><text fill="#000000" font-family="sans-serif" font-size="14" lengthAdjust="spacing" textLength="242.1152" x="27" y="527.7845">role : enum {Owner, Manager, Staff}</text><text fill="#000000" font-family="sans-serif" font-size="14" lengthAdjust="spacing" textLength="4.4297" x="27" y="544.2728">&#160;</text><text fill="#000000" font-family="sans-serif" font-size="14" lengthAdjust="spacing" textLength="138.1953" x="27" y="560.7611">createdAt : datetime</text><text fill="#000000" font-family="sans-serif" font-size="14" lengthAdjust="spacing" textLength="169.2988" x="27" y="577.2494">locale : enum {ru, en, kz}</text><line style="stroke:#181818;stroke-width:0.5;" x1="8" x2="274.1152" y1="584.2025" y2="584.2025"/></g><!--class Companies--><g class="entity" data-entity="Companies" data-source-line="28" data-uid="ent0003" id="entity_Companies"><rect fill="#F1F1F1" height="196.3945" rx="2.5" ry="2.5" style="stroke:#181818;stroke-width:0.5;" width="273.9668" x="237.07" y="7"/><ellipse cx="332.0178" cy="23" fill="#ADD1B2" rx="11" ry="11" style="stroke:#181818;stroke-width:1;"/><path d="M335.632,29.5 L327.9123,29.5 L327.9123,17.1069 L335.632,17.1069 L335.632,19.2651 L330.361,19.2651 L330.361,21.938 L335.134,21.938 L335.134,24.0962 L330.361,24.0962 L330.361,27.3418 L335.632,27.3418 Z " fill="#000000"/><text fill="#000000" font-family="sans-serif" font-size="14" lengthAdjust="spacing" textLength="75.5713" x="352.5178" y="28.291">Companies</text><line style="stroke:#181818;stroke-width:0.5;" x1="238.07" x2="510.0368" y1="39" y2="39"/><ellipse cx="248.07" cy="52.7441" fill="#000000" rx="3" ry="3" style="stroke:#000000;stroke-width:1;"/><text fill="#000000" font-family="sans-serif" font-size="14" lengthAdjust="spacing" textLength="234.7461" x="257.07" y="56.5352">company_id : number &#171;generated&#187;</text><text fill="#000000" font-family="sans-serif" font-size="14" lengthAdjust="spacing" textLength="4.4297" x="257.07" y="73.0234">&#160;</text><text fill="#000000" font-family="sans-serif" font-size="14" lengthAdjust="spacing" textLength="228.0127" x="257.07" y="89.5117">status : enum {active, suspended}</text><text fill="#000000" font-family="sans-serif" font-size="14" lengthAdjust="spacing" textLength="4.4297" x="257.07" y="106">&#160;</text><text fill="#000000" font-family="sans-serif" font-size="14" lengthAdjust="spacing" textLength="90.1455" x="257.07" y="122.4883">name : string</text><text fill="#000000" font-family="sans-serif" font-size="14" lengthAdjust="spacing" textLength="128.9326" x="257.07" y="138.9766">description : string</text><text fill="#000000" font-family="sans-serif" font-size="14" lengthAdjust="spacing" textLength="108.2949" x="257.07" y="155.4648">logo_url : string</text><text fill="#000000" font-family="sans-serif" font-size="14" lengthAdjust="spacing" textLength="247.9668" x="257.07" y="171.9531">location : string // or maybe city_id?</text><text fill="#000000" font-family="sans-serif" font-size="14" lengthAdjust="spacing" textLength="225.0459" x="257.07" y="188.4414">type : enum {supplier, consumer}</text><line style="stroke:#181818;stroke-width:0.5;" x1="238.07" x2="510.0368" y1="195.3945" y2="195.3945"/></g><!--class Products--><g class="entity" data-entity="Products" data-source-line="40" data-uid="ent0004" id="entity_Products"><rect fill="#F1F1F1" height="278.8359" rx="2.5" ry="2.5" style="stroke:#181818;stroke-width:0.5;" width="259.543" x="159.29" y="622.2"/><ellipse cx="255.2563" cy="638.2" fill="#ADD1B2" rx="11" ry="11" style="stroke:#181818;stroke-width:1;"/><path d="M258.8706,644.7 L251.1508,644.7 L251.1508,632.3069 L258.8706,632.3069 L258.8706,634.4651 L253.5996,634.4651 L253.5996,637.138 L258.3725,637.138 L258.3725,639.2962 L253.5996,639.2962 L253.5996,642.5418 L258.8706,642.5418 Z " fill="#000000"/><text fill="#000000" font-family="sans-serif" font-size="14" lengthAdjust="spacing" textLength="59.1104" x="275.7563" y="643.491">Products</text><line style="stroke:#181818;stroke-width:0.5;" x1="160.29" x2="417.833" y1="654.2" y2="654.2"/><ellipse cx="170.29" cy="667.9441" fill="#000000" rx="3" ry="3" style="stroke:#000000;stroke-width:1;"/><text fill="#000000" font-family="sans-serif" font-size="14" lengthAdjust="spacing" textLength="233.543" x="179.29" y="671.7352">products_id : number &#171;generated&#187;</text><ellipse cx="170.29" cy="684.4324" fill="#000000" rx="3" ry="3" style="stroke:#000000;stroke-width:1;"/><text fill="#000000" font-family="sans-serif" font-size="14" lengthAdjust="spacing" textLength="183.0664" x="179.29" y="688.2234">company_id : number &#171;FK&#187;</text><text fill="#000000" font-family="sans-serif" font-size="14" lengthAdjust="spacing" textLength="4.4297" x="179.29" y="704.7117">&#160;</text><text fill="#000000" font-family="sans-serif" font-size="14" lengthAdjust="spacing" textLength="90.1455" x="179.29" y="721.2">name : string</text><text fill="#000000" font-family="sans-serif" font-size="14" lengthAdjust="spacing" textLength="128.9326" x="179.29" y="737.6883">description : string</text><text fill="#000000" font-family="sans-serif" font-size="14" lengthAdjust="spacing" textLength="168.5264" x="179.29" y="754.1766">picture_url : list&lt;string&gt;</text><text fill="#000000" font-family="sans-serif" font-size="14" lengthAdjust="spacing" textLength="102.4023" x="179.29" y="770.6648">stock : number</text><text fill="#000000" font-family="sans-serif" font-size="14" lengthAdjust="spacing" textLength="4.4297" x="179.29" y="787.1531">&#160;</text><text fill="#000000" font-family="sans-serif" font-size="14" lengthAdjust="spacing" textLength="141.2236" x="179.29" y="803.6414">retail_price : number</text><text fill="#000000" font-family="sans-serif" font-size="14" lengthAdjust="spacing" textLength="130.8125" x="179.29" y="820.1297">threshold : number</text><text fill="#000000" font-family="sans-serif" font-size="14" lengthAdjust="spacing" textLength="136.3633" x="179.29" y="836.618">bulk_price : number</text><text fill="#000000" font-family="sans-serif" font-size="14" lengthAdjust="spacing" textLength="4.4297" x="179.29" y="853.1063">&#160;</text><text fill="#000000" font-family="sans-serif" font-size="14" lengthAdjust="spacing" textLength="174.4258" x="179.29" y="869.5945">minimum_order : number</text><text fill="#000000" font-family="sans-serif" font-size="14" lengthAdjust="spacing" textLength="79.5156" x="179.29" y="886.0828">unit : string</text><line style="stroke:#181818;stroke-width:0.5;" x1="160.29" x2="417.833" y1="893.0359" y2="893.0359"/></g><!--class Linkings--><g class="entity" data-entity="Linkings" data-source-line="60" data-uid="ent0005" id="entity_Linkings"><rect fill="#F1F1F1" height="245.8594" rx="2.5" ry="2.5" style="stroke:#181818;stroke-width:0.5;" width="388.4824" x="380.82" y="313.37"/><ellipse cx="542.319" cy="329.37" fill="#ADD1B2" rx="11" ry="11" style="stroke:#181818;stroke-width:1;"/><path d="M545.9333,335.87 L538.2136,335.87 L538.2136,323.4769 L545.9333,323.4769 L545.9333,325.6351 L540.6623,325.6351 L540.6623,328.308 L545.4352,328.308 L545.4352,330.4662 L540.6623,330.4662 L540.6623,333.7118 L545.9333,333.7118 Z " fill="#000000"/><text fill="#000000" font-family="sans-serif" font-size="14" lengthAdjust="spacing" textLength="56.9844" x="562.819" y="334.661">Linkings</text><line style="stroke:#181818;stroke-width:0.5;" x1="381.82" x2="768.3024" y1="345.37" y2="345.37"/><ellipse cx="391.82" cy="359.1141" fill="#000000" rx="3" ry="3" style="stroke:#000000;stroke-width:1;"/><text fill="#000000" font-family="sans-serif" font-size="14" lengthAdjust="spacing" textLength="219.7891" x="400.82" y="362.9052">linking_id : number &#171;generated&#187;</text><text fill="#000000" font-family="sans-serif" font-size="14" lengthAdjust="spacing" textLength="256.9492" x="400.82" y="379.3934">consumer_company_id : number &#171;FK&#187;</text><text fill="#000000" font-family="sans-serif" font-size="14" lengthAdjust="spacing" textLength="245.1367" x="400.82" y="395.8817">supplier_company_id : number &#171;FK&#187;</text><text fill="#000000" font-family="sans-serif" font-size="14" lengthAdjust="spacing" textLength="4.4297" x="400.82" y="412.37">&#160;</text><text fill="#000000" font-family="sans-serif" font-size="14" lengthAdjust="spacing" textLength="248.9717" x="400.82" y="428.8583">requested_by_user_id : number &#171;FK&#187;</text><text fill="#000000" font-family="sans-serif" font-size="14" lengthAdjust="spacing" textLength="253.3467" x="400.82" y="445.3466">responded_by_user_id : number &#171;FK&#187;</text><text fill="#000000" font-family="sans-serif" font-size="14" lengthAdjust="spacing" textLength="252.1025" x="400.82" y="461.8348">assigned_salesman_id : number &#171;FK&#187;</text><text fill="#000000" font-family="sans-serif" font-size="14" lengthAdjust="spacing" textLength="4.4297" x="400.82" y="478.3231">&#160;</text><text fill="#000000" font-family="sans-serif" font-size="14" lengthAdjust="spacing" textLength="362.4824" x="400.82" y="494.8114">status : enum {accepted, pending, rejected, unlinked}</text><text fill="#000000" font-family="sans-serif" font-size="14" lengthAdjust="spacing" textLength="112.2598" x="400.82" y="511.2997">message : string</text><text fill="#000000" font-family="sans-serif" font-size="14" lengthAdjust="spacing" textLength="138.1953" x="400.82" y="527.788">createdAt : datetime</text><text fill="#000000" font-family="sans-serif" font-size="14" lengthAdjust="spacing" textLength="143.8076" x="400.82" y="544.2763">updatedAt : datetime</text><line style="stroke:#181818;stroke-width:0.5;" x1="381.82" x2="768.3024" y1="551.2294" y2="551.2294"/></g><!--class Orders--><g class="entity" data-entity="Orders" data-source-line="75" data-uid="ent0006" id="entity_Orders"><rect fill="#F1F1F1" height="163.418" rx="2.5" ry="2.5" style="stroke:#181818;stroke-width:0.5;" width="413.249" x="368.43" y="931.04"/><ellipse cx="547.764" cy="947.04" fill="#ADD1B2" rx="11" ry="11" style="stroke:#181818;stroke-width:1;"/><path d="M551.3782,953.54 L543.6585,953.54 L543.6585,941.1469 L551.3782,941.1469 L551.3782,943.3051 L546.1072,943.3051 L546.1072,945.978 L550.8802,945.978 L550.8802,948.1362 L546.1072,948.1362 L546.1072,951.3818 L551.3782,951.3818 Z " fill="#000000"/><text fill="#000000" font-family="sans-serif" font-size="14" lengthAdjust="spacing" textLength="46.0811" x="568.264" y="952.331">Orders</text><line style="stroke:#181818;stroke-width:0.5;" x1="369.43" x2="780.679" y1="963.04" y2="963.04"/><ellipse cx="379.43" cy="976.7841" fill="#000000" rx="3" ry="3" style="stroke:#000000;stroke-width:1;"/><text fill="#000000" font-family="sans-serif" font-size="14" lengthAdjust="spacing" textLength="210.0273" x="388.43" y="980.5752">order_id : number &#171;generated&#187;</text><ellipse cx="379.43" cy="993.2724" fill="#000000" rx="3" ry="3" style="stroke:#000000;stroke-width:1;"/><text fill="#000000" font-family="sans-serif" font-size="14" lengthAdjust="spacing" textLength="168.1094" x="388.43" y="997.0634">linking_id : number &#171;FK&#187;</text><text fill="#000000" font-family="sans-serif" font-size="14" lengthAdjust="spacing" textLength="225.9619" x="388.43" y="1013.5517">consumer_staff_id : number &#171;FK&#187;</text><text fill="#000000" font-family="sans-serif" font-size="14" lengthAdjust="spacing" textLength="4.4297" x="388.43" y="1030.04">&#160;</text><text fill="#000000" font-family="sans-serif" font-size="14" lengthAdjust="spacing" textLength="137.4844" x="388.43" y="1046.5283">total_price : number</text><text fill="#000000" font-family="sans-serif" font-size="14" lengthAdjust="spacing" textLength="4.4297" x="388.43" y="1063.0166">&#160;</text><text fill="#000000" font-family="sans-serif" font-size="14" lengthAdjust="spacing" textLength="387.249" x="388.43" y="1079.5048">status : enum {created, processing, shipping, completed}</text><line style="stroke:#181818;stroke-width:0.5;" x1="369.43" x2="780.679" y1="1086.458" y2="1086.458"/></g><!--class OrderProducts--><g class="entity" data-entity="OrderProducts" data-source-line="85" data-uid="ent0007" id="entity_OrderProducts"><rect fill="#F1F1F1" height="113.9531" rx="2.5" ry="2.5" style="stroke:#181818;stroke-width:0.5;" width="207.877" x="109.12" y="1253.9"/><ellipse cx="159.7811" cy="1269.9" fill="#ADD1B2" rx="11" ry="11" style="stroke:#181818;stroke-width:1;"/><path d="M163.3954,1276.4 L155.6757,1276.4 L155.6757,1264.0069 L163.3954,1264.0069 L163.3954,1266.1651 L158.1244,1266.1651 L158.1244,1268.838 L162.8973,1268.838 L162.8973,1270.9962 L158.1244,1270.9962 L158.1244,1274.2418 L163.3954,1274.2418 Z " fill="#000000"/><text fill="#000000" font-family="sans-serif" font-size="14" lengthAdjust="spacing" textLength="98.0547" x="180.2811" y="1275.191">OrderProducts</text><line style="stroke:#181818;stroke-width:0.5;" x1="110.12" x2="315.997" y1="1285.9" y2="1285.9"/><ellipse cx="120.12" cy="1299.6441" fill="#000000" rx="3" ry="3" style="stroke:#000000;stroke-width:1;"/><text fill="#000000" font-family="sans-serif" font-size="14" lengthAdjust="spacing" textLength="158.3477" x="129.12" y="1303.4352">order_id : number &#171;FK&#187;</text><ellipse cx="120.12" cy="1316.1324" fill="#000000" rx="3" ry="3" style="stroke:#000000;stroke-width:1;"/><text fill="#000000" font-family="sans-serif" font-size="14" lengthAdjust="spacing" textLength="174.7266" x="129.12" y="1319.9234">product_id : number &#171;FK&#187;</text><text fill="#000000" font-family="sans-serif" font-size="14" lengthAdjust="spacing" textLength="181.877" x="129.12" y="1336.4117">product_quantity : number</text><text fill="#000000" font-family="sans-serif" font-size="14" lengthAdjust="spacing" textLength="159.6807" x="129.12" y="1352.9">product_price : number</text><line style="stroke:#181818;stroke-width:0.5;" x1="110.12" x2="315.997" y1="1359.8531" y2="1359.8531"/></g><!--class Chats--><g class="entity" data-entity="Chats" data-source-line="92" data-uid="ent0008" id="entity_Chats"><rect fill="#F1F1F1" height="130.4414" rx="2.5" ry="2.5" style="stroke:#181818;stroke-width:0.5;" width="228.1865" x="832.96" y="1245.66"/><ellipse cx="923.5635" cy="1261.66" fill="#ADD1B2" rx="11" ry="11" style="stroke:#181818;stroke-width:1;"/><path d="M927.1778,1268.16 L919.458,1268.16 L919.458,1255.7669 L927.1778,1255.7669 L927.1778,1257.9251 L921.9068,1257.9251 L921.9068,1260.598 L926.6797,1260.598 L926.6797,1262.7562 L921.9068,1262.7562 L921.9068,1266.0018 L927.1778,1266.0018 Z " fill="#000000"/><text fill="#000000" font-family="sans-serif" font-size="14" lengthAdjust="spacing" textLength="38.4795" x="944.0635" y="1266.951">Chats</text><line style="stroke:#181818;stroke-width:0.5;" x1="833.96" x2="1060.1465" y1="1277.66" y2="1277.66"/><ellipse cx="843.96" cy="1291.4041" fill="#000000" rx="3" ry="3" style="stroke:#000000;stroke-width:1;"/><text fill="#000000" font-family="sans-serif" font-size="14" lengthAdjust="spacing" textLength="202.1865" x="852.96" y="1295.1952">chat_id : number &#171;generated&#187;</text><ellipse cx="843.96" cy="1307.8924" fill="#000000" rx="3" ry="3" style="stroke:#000000;stroke-width:1;"/><text fill="#000000" font-family="sans-serif" font-size="14" lengthAdjust="spacing" textLength="168.1094" x="852.96" y="1311.6834">linking_id : number &#171;FK&#187;</text><text fill="#000000" font-family="sans-serif" font-size="14" lengthAdjust="spacing" textLength="158.3477" x="852.96" y="1328.1717">order_id : number &#171;FK&#187;</text><text fill="#000000" font-family="sans-serif" font-size="14" lengthAdjust="spacing" textLength="4.4297" x="852.96" y="1344.66">&#160;</text><text fill="#000000" font-family="sans-serif" font-size="14" lengthAdjust="spacing" textLength="138.1953" x="852.96" y="1361.1483">createdAt : datetime</text><line style="stroke:#181818;stroke-width:0.5;" x1="833.96" x2="1060.1465" y1="1368.1014" y2="1368.1014"/></g><!--class Messages--><g class="entity" data-entity="Messages" data-source-line="100" data-uid="ent0009" id="entity_Messages"><rect fill="#F1F1F1" height="163.418" rx="2.5" ry="2.5" style="stroke:#181818;stroke-width:0.5;" width="273.9668" x="810.07" y="1535.54"/><ellipse cx="910.0388" cy="1551.54" fill="#ADD1B2" rx="11" ry="11" style="stroke:#181818;stroke-width:1;"/><path d="M913.653,1558.04 L905.9333,1558.04 L905.9333,1545.6469 L913.653,1545.6469 L913.653,1547.8051 L908.382,1547.8051 L908.382,1550.478 L913.155,1550.478 L913.155,1552.6362 L908.382,1552.6362 L908.382,1555.8818 L913.653,1555.8818 Z " fill="#000000"/><text fill="#000000" font-family="sans-serif" font-size="14" lengthAdjust="spacing" textLength="65.5293" x="930.5388" y="1556.831">Messages</text><line style="stroke:#181818;stroke-width:0.5;" x1="811.07" x2="1083.0368" y1="1567.54" y2="1567.54"/><ellipse cx="821.07" cy="1581.2841" fill="#000000" rx="3" ry="3" style="stroke:#000000;stroke-width:1;"/><text fill="#000000" font-family="sans-serif" font-size="14" lengthAdjust="spacing" textLength="232.7637" x="830.07" y="1585.0752">message_id : number &#171;generated&#187;</text><ellipse cx="821.07" cy="1597.7724" fill="#000000" rx="3" ry="3" style="stroke:#000000;stroke-width:1;"/><text fill="#000000" font-family="sans-serif" font-size="14" lengthAdjust="spacing" textLength="150.5068" x="830.07" y="1601.5634">chat_id : number &#171;FK&#187;</text><ellipse cx="821.07" cy="1614.2607" fill="#000000" rx="3" ry="3" style="stroke:#000000;stroke-width:1;"/><text fill="#000000" font-family="sans-serif" font-size="14" lengthAdjust="spacing" textLength="167.6445" x="830.07" y="1618.0517">sender_id : number &#171;FK&#187;</text><text fill="#000000" font-family="sans-serif" font-size="14" lengthAdjust="spacing" textLength="247.9668" x="830.07" y="1634.54">type : enum {text, audio, image, file}</text><text fill="#000000" font-family="sans-serif" font-size="14" lengthAdjust="spacing" textLength="86.3926" x="830.07" y="1651.0283">body : string</text><text fill="#000000" font-family="sans-serif" font-size="14" lengthAdjust="spacing" textLength="4.4297" x="830.07" y="1667.5166">&#160;</text><text fill="#000000" font-family="sans-serif" font-size="14" lengthAdjust="spacing" textLength="121.8506" x="830.07" y="1684.0048">sent_at : datetime</text><line style="stroke:#181818;stroke-width:0.5;" x1="811.07" x2="1083.0368" y1="1690.958" y2="1690.958"/></g><!--class Complaints--><g class="entity" data-entity="Complaints" data-source-line="110" data-uid="ent0010" id="entity_Complaints"><rect fill="#F1F1F1" height="278.8359" rx="2.5" ry="2.5" style="stroke:#181818;stroke-width:0.5;" width="445.1797" x="352.47" y="1171.46"/><ellipse cx="532.2825" cy="1187.46" fill="#ADD1B2" rx="11" ry="11" style="stroke:#181818;stroke-width:1;"/><path d="M535.8968,1193.96 L528.177,1193.96 L528.177,1181.5669 L535.8968,1181.5669 L535.8968,1183.7251 L530.6258,1183.7251 L530.6258,1186.398 L535.3987,1186.398 L535.3987,1188.5562 L530.6258,1188.5562 L530.6258,1191.8018 L535.8968,1191.8018 Z " fill="#000000"/><text fill="#000000" font-family="sans-serif" font-size="14" lengthAdjust="spacing" textLength="77.0547" x="552.7825" y="1192.751">Complaints</text><line style="stroke:#181818;stroke-width:0.5;" x1="353.47" x2="796.6497" y1="1203.46" y2="1203.46"/><ellipse cx="363.47" cy="1217.2041" fill="#000000" rx="3" ry="3" style="stroke:#000000;stroke-width:1;"/><text fill="#000000" font-family="sans-serif" font-size="14" lengthAdjust="spacing" textLength="240.7617" x="372.47" y="1220.9952">complaint_id : number &#171;generated&#187;</text><text fill="#000000" font-family="sans-serif" font-size="14" lengthAdjust="spacing" textLength="158.3477" x="372.47" y="1237.4834">order_id : number &#171;FK&#187;</text><text fill="#000000" font-family="sans-serif" font-size="14" lengthAdjust="spacing" textLength="222.4141" x="372.47" y="1253.9717">raised_by_user_id : number &#171;FK&#187;</text><text fill="#000000" font-family="sans-serif" font-size="14" lengthAdjust="spacing" textLength="272.9385" x="372.47" y="1270.46">assigned_to_salesman_id : number &#171;FK&#187;</text><text fill="#000000" font-family="sans-serif" font-size="14" lengthAdjust="spacing" textLength="272.46" x="372.47" y="1286.9483">escalated_to_manager_id : number &#171;FK&#187;</text><text fill="#000000" font-family="sans-serif" font-size="14" lengthAdjust="spacing" textLength="254.584" x="372.47" y="1303.4366">escalated_to_owner_id : number &#171;FK&#187;</text><text fill="#000000" font-family="sans-serif" font-size="14" lengthAdjust="spacing" textLength="4.4297" x="372.47" y="1319.9248">&#160;</text><text fill="#000000" font-family="sans-serif" font-size="14" lengthAdjust="spacing" textLength="419.1797" x="372.47" y="1336.4131">status : enum {open, in_progress, escalated, resolved, closed}</text><text fill="#000000" font-family="sans-serif" font-size="14" lengthAdjust="spacing" textLength="4.4297" x="372.47" y="1352.9014">&#160;</text><text fill="#000000" font-family="sans-serif" font-size="14" lengthAdjust="spacing" textLength="128.9326" x="372.47" y="1369.3897">description : string</text><text fill="#000000" font-family="sans-serif" font-size="14" lengthAdjust="spacing" textLength="165.8877" x="372.47" y="1385.878">resolution_notes : string</text><text fill="#000000" font-family="sans-serif" font-size="14" lengthAdjust="spacing" textLength="4.4297" x="372.47" y="1402.3663">&#160;</text><text fill="#000000" font-family="sans-serif" font-size="14" lengthAdjust="spacing" textLength="138.1953" x="372.47" y="1418.8545">createdAt : datetime</text><text fill="#000000" font-family="sans-serif" font-size="14" lengthAdjust="spacing" textLength="143.8076" x="372.47" y="1435.3428">updatedAt : datetime</text><line style="stroke:#181818;stroke-width:0.5;" x1="353.47" x2="796.6497" y1="1442.2959" y2="1442.2959"/></g><!--class ComplaintHistory--><g class="entity" data-entity="ComplaintHistory" data-source-line="127" data-uid="ent0011" id="entity_ComplaintHistory"><rect fill="#F1F1F1" height="179.9063" rx="2.5" ry="2.5" style="stroke:#181818;stroke-width:0.5;" width="264.7793" x="442.67" y="1527.29"/><ellipse cx="511.6754" cy="1543.29" fill="#ADD1B2" rx="11" ry="11" style="stroke:#181818;stroke-width:1;"/><path d="M515.2896,1549.79 L507.5699,1549.79 L507.5699,1537.3969 L515.2896,1537.3969 L515.2896,1539.5551 L510.0186,1539.5551 L510.0186,1542.228 L514.7916,1542.228 L514.7916,1544.3862 L510.0186,1544.3862 L510.0186,1547.6318 L515.2896,1547.6318 Z " fill="#000000"/><text fill="#000000" font-family="sans-serif" font-size="14" lengthAdjust="spacing" textLength="118.2686" x="532.1754" y="1548.581">ComplaintHistory</text><line style="stroke:#181818;stroke-width:0.5;" x1="443.67" x2="706.4493" y1="1559.29" y2="1559.29"/><ellipse cx="453.67" cy="1573.0341" fill="#000000" rx="3" ry="3" style="stroke:#000000;stroke-width:1;"/><text fill="#000000" font-family="sans-serif" font-size="14" lengthAdjust="spacing" textLength="220.1104" x="462.67" y="1576.8252">history_id : number &#171;generated&#187;</text><text fill="#000000" font-family="sans-serif" font-size="14" lengthAdjust="spacing" textLength="189.082" x="462.67" y="1593.3134">complaint_id : number &#171;FK&#187;</text><text fill="#000000" font-family="sans-serif" font-size="14" lengthAdjust="spacing" textLength="238.7793" x="462.67" y="1609.8017">changed_by_user_id : number &#171;FK&#187;</text><text fill="#000000" font-family="sans-serif" font-size="14" lengthAdjust="spacing" textLength="4.4297" x="462.67" y="1626.29">&#160;</text><text fill="#000000" font-family="sans-serif" font-size="14" lengthAdjust="spacing" textLength="126.9775" x="462.67" y="1642.7783">new_status : enum</text><text fill="#000000" font-family="sans-serif" font-size="14" lengthAdjust="spacing" textLength="90.3164" x="462.67" y="1659.2666">notes : string</text><text fill="#000000" font-family="sans-serif" font-size="14" lengthAdjust="spacing" textLength="4.4297" x="462.67" y="1675.7548">&#160;</text><text fill="#000000" font-family="sans-serif" font-size="14" lengthAdjust="spacing" textLength="143.8076" x="462.67" y="1692.2431">updatedAt : datetime</text><line style="stroke:#181818;stroke-width:0.5;" x1="443.67" x2="706.4493" y1="1699.1963" y2="1699.1963"/></g><!--link Companies to Users--><g class="link" data-entity-1="Companies" data-entity-2="Users" data-source-line="140" data-uid="lnk12" id="link_Companies_Users"><path codeLine="140" d="M250.3483,209.5141 C241.4583,219.0941 238.51,223.2 231.06,233.39 C220.52,247.79 214.6411,256.5907 205.8611,272.8507" fill="none" id="Companies-Users" style="stroke:#181818;stroke-width:1;"/><line style="stroke:#181818;stroke-width:1;" x1="250.1371" x2="256.0012" y1="203.8612" y2="209.3029"/><line style="stroke:#181818;stroke-width:1;" x1="248.0964" x2="253.9605" y1="206.0602" y2="211.5019"/><line style="stroke:#181818;stroke-width:1;" x1="250.3483" x2="255.79" y1="209.5141" y2="203.65"/><line style="stroke:#181818;stroke-width:1;" x1="205.8611" x2="207.3395" y1="272.8507" y2="282.7408"/><line style="stroke:#181818;stroke-width:1;" x1="205.8611" x2="196.7805" y1="272.8507" y2="277.0392"/><line style="stroke:#181818;stroke-width:1;" x1="205.8611" x2="202.06" y1="272.8507" y2="279.89"/><line style="stroke:#181818;stroke-width:1;" x1="210.331" x2="203.2917" y1="272.9914" y2="269.1903"/><text fill="#000000" font-family="sans-serif" font-size="13" lengthAdjust="spacing" textLength="52.7236" x="232.06" y="246.9584">employs</text></g><!--link Companies to Products--><g class="link" data-entity-1="Companies" data-entity-2="Products" data-source-line="142" data-uid="lnk13" id="link_Companies_Products"><path codeLine="142" d="M360.3498,211.7534 C345.9598,322.5634 325.7078,478.4099 309.4078,603.9399" fill="none" id="Companies-Products" style="stroke:#181818;stroke-width:1;"/><line style="stroke:#181818;stroke-width:1;" x1="356.8982" x2="364.8316" y1="207.2716" y2="208.3018"/><line style="stroke:#181818;stroke-width:1;" x1="356.5118" x2="364.4452" y1="210.2466" y2="211.2768"/><line style="stroke:#181818;stroke-width:1;" x1="360.3498" x2="361.38" y1="211.7534" y2="203.82"/><line style="stroke:#181818;stroke-width:1;" x1="308.1201" x2="313.04" y1="613.8566" y2="622.5626"/><line style="stroke:#181818;stroke-width:1;" x1="308.1201" x2="301.14" y1="613.8566" y2="621.0174"/><line style="stroke:#181818;stroke-width:1;" x1="308.1201" x2="307.09" y1="613.8566" y2="621.79"/><ellipse cx="308.8928" cy="607.9066" fill="none" rx="4" ry="4" style="stroke:#181818;stroke-width:1;"/><text fill="#000000" font-family="sans-serif" font-size="13" lengthAdjust="spacing" textLength="36.7339" x="358.21" y="246.9584">offers</text></g><!--link Companies to Linkings--><g class="link" data-entity-1="Companies" data-entity-2="Linkings" data-source-line="144" data-uid="lnk14" id="link_Companies_Linkings"><path codeLine="144" d="M409.0523,220.44 C415.2223,236.48 415.92,235.82 424.06,250.39 C435.93,271.65 445.4944,286.4942 460.6044,306.6042" fill="none" id="Companies-Linkings" style="stroke:#181818;stroke-width:1;"/><line style="stroke:#181818;stroke-width:1;" x1="405.4621" x2="396.99" y1="211.1066" y2="205.7941"/><line style="stroke:#181818;stroke-width:1;" x1="405.4621" x2="408.19" y1="211.1066" y2="201.4859"/><line style="stroke:#181818;stroke-width:1;" x1="405.4621" x2="402.59" y1="211.1066" y2="203.64"/><ellipse cx="407.6163" cy="216.7066" fill="none" rx="4" ry="4" style="stroke:#181818;stroke-width:1;"/><line style="stroke:#181818;stroke-width:1;" x1="466.2051" x2="459.8093" y1="307.3993" y2="312.2049"/><line style="stroke:#181818;stroke-width:1;" x1="464.403" x2="458.0072" y1="305.0009" y2="309.8065"/><line style="stroke:#181818;stroke-width:1;" x1="460.6044" x2="465.41" y1="306.6042" y2="313"/><text fill="#000000" font-family="sans-serif" font-size="13" lengthAdjust="spacing" textLength="98.4966" x="425.06" y="246.9584">acts as supplier</text></g><!--link Companies to Linkings--><g class="link" data-entity-1="Companies" data-entity-2="Linkings" data-source-line="145" data-uid="lnk15" id="link_Companies_Linkings"><path codeLine="145" d="M517.7976,217.3649 C526.0176,226.7249 521.67,223.07 528.06,233.39 C542.89,257.33 551.0825,277.7432 558.0425,305.3232" fill="none" id="Companies-Linkings-1" style="stroke:#181818;stroke-width:1;"/><line style="stroke:#181818;stroke-width:1;" x1="511.1989" x2="501.4117" y1="209.8511" y2="207.7992"/><line style="stroke:#181818;stroke-width:1;" x1="511.1989" x2="510.4283" y1="209.8511" y2="199.8808"/><line style="stroke:#181818;stroke-width:1;" x1="511.1989" x2="505.92" y1="209.8511" y2="203.84"/><ellipse cx="515.1581" cy="214.3593" fill="none" rx="4" ry="4" style="stroke:#181818;stroke-width:1;"/><line style="stroke:#181818;stroke-width:1;" x1="562.8997" x2="555.1428" y1="308.2228" y2="310.1803"/><line style="stroke:#181818;stroke-width:1;" x1="562.1656" x2="554.4088" y1="305.314" y2="307.2715"/><line style="stroke:#181818;stroke-width:1;" x1="558.0425" x2="560" y1="305.3232" y2="313.08"/><text fill="#000000" font-family="sans-serif" font-size="13" lengthAdjust="spacing" textLength="109.4653" x="537.26" y="246.9584">acts as consumer</text></g><!--link Orders to OrderProducts--><g class="link" data-entity-1="Orders" data-entity-2="OrderProducts" data-source-line="147" data-uid="lnk16" id="link_Orders_OrderProducts"><path codeLine="147" d="M431.1425,1099.3057 C396.2825,1122.3057 366.5,1144.17 335.06,1171.46 C306.75,1196.03 283.9516,1220.896 261.9816,1247.346" fill="none" id="Orders-OrderProducts" style="stroke:#181818;stroke-width:1;"/><line style="stroke:#181818;stroke-width:1;" x1="432.2784" x2="436.6841" y1="1093.7641" y2="1100.4416"/><line style="stroke:#181818;stroke-width:1;" x1="429.7743" x2="434.18" y1="1095.4162" y2="1102.0938"/><line style="stroke:#181818;stroke-width:1;" x1="431.1425" x2="437.82" y1="1099.3057" y2="1094.9"/><line style="stroke:#181818;stroke-width:1;" x1="261.9816" x2="261.4855" y1="1247.346" y2="1257.3337"/><line style="stroke:#181818;stroke-width:1;" x1="261.9816" x2="252.2545" y1="1247.346" y2="1249.6663"/><line style="stroke:#181818;stroke-width:1;" x1="261.9816" x2="256.87" y1="1247.346" y2="1253.5"/><line style="stroke:#181818;stroke-width:1;" x1="266.3365" x2="260.1826" y1="1248.3634" y2="1243.2517"/><text fill="#000000" font-family="sans-serif" font-size="13" lengthAdjust="spacing" textLength="53.2061" x="391.58" y="1138.0284">contains</text></g><!--link Products to OrderProducts--><g class="link" data-entity-1="Products" data-entity-2="OrderProducts" data-source-line="148" data-uid="lnk17" id="link_Products_OrderProducts"><path codeLine="148" d="M268.6798,909.344 C252.8298,1023.504 234.757,1153.6412 223.327,1235.9112" fill="none" id="Products-OrderProducts" style="stroke:#181818;stroke-width:1;"/><line style="stroke:#181818;stroke-width:1;" x1="265.2679" x2="273.1919" y1="904.8319" y2="905.9321"/><line style="stroke:#181818;stroke-width:1;" x1="264.8554" x2="272.7793" y1="907.8034" y2="908.9036"/><line style="stroke:#181818;stroke-width:1;" x1="268.6798" x2="269.78" y1="909.344" y2="901.42"/><line style="stroke:#181818;stroke-width:1;" x1="221.9509" x2="226.7929" y1="1245.8161" y2="1254.5657"/><line style="stroke:#181818;stroke-width:1;" x1="221.9509" x2="214.9071" y1="1245.8161" y2="1252.9143"/><line style="stroke:#181818;stroke-width:1;" x1="221.9509" x2="220.85" y1="1245.8161" y2="1253.74"/><ellipse cx="222.7766" cy="1239.8732" fill="none" rx="4" ry="4" style="stroke:#181818;stroke-width:1;"/><text fill="#000000" font-family="sans-serif" font-size="13" lengthAdjust="spacing" textLength="46.0586" x="266.39" y="1017.8184">used in</text></g><!--link Orders to Chats--><g class="link" data-entity-1="Orders" data-entity-2="Chats" data-source-line="150" data-uid="lnk18" id="link_Orders_Chats"><path codeLine="150" d="M717.002,1099.319 C752.242,1122.519 782.71,1144.47 815.06,1171.46 C841.7,1193.69 863.1621,1214.9531 885.6521,1239.3031" fill="none" id="Orders-Chats" style="stroke:#181818;stroke-width:1;"/><line style="stroke:#181818;stroke-width:1;" x1="711.4615" x2="715.8605" y1="1100.4605" y2="1093.7785"/><line style="stroke:#181818;stroke-width:1;" x1="713.9672" x2="718.3662" y1="1102.1101" y2="1095.4282"/><line style="stroke:#181818;stroke-width:1;" x1="717.002" x2="710.32" y1="1099.319" y2="1094.92"/><line style="stroke:#181818;stroke-width:1;" x1="891.3045" x2="885.4276" y1="1239.5276" y2="1244.9555"/><line style="stroke:#181818;stroke-width:1;" x1="889.269" x2="883.3921" y1="1237.3238" y2="1242.7517"/><line style="stroke:#181818;stroke-width:1;" x1="885.6521" x2="891.08" y1="1239.3031" y2="1245.18"/><text fill="#000000" font-family="sans-serif" font-size="13" lengthAdjust="spacing" textLength="64.0479" x="772.82" y="1138.0284">has a chat</text></g><!--link Linkings to Chats--><g class="link" data-entity-1="Linkings" data-entity-2="Chats" data-source-line="151" data-uid="lnk19" id="link_Linkings_Chats"><path codeLine="151" d="M657.4355,566.5493 C669.3555,587.0893 677,601.53 687.06,622.2 C794.74,843.4 882.2091,1104.1952 921.5591,1228.0352" fill="none" id="Linkings-Chats" style="stroke:#181818;stroke-width:1;"/><line style="stroke:#181818;stroke-width:1;" x1="651.9681" x2="658.8874" y1="565.0974" y2="561.0819"/><line style="stroke:#181818;stroke-width:1;" x1="653.4739" x2="660.3932" y1="567.6921" y2="563.6766"/><line style="stroke:#181818;stroke-width:1;" x1="657.4355" x2="653.42" y1="566.5493" y2="559.63"/><line style="stroke:#181818;stroke-width:1;" x1="924.5874" x2="932.7283" y1="1237.5656" y2="1243.373"/><line style="stroke:#181818;stroke-width:1;" x1="924.5874" x2="921.2917" y1="1237.5656" y2="1247.007"/><line style="stroke:#181818;stroke-width:1;" x1="924.5874" x2="927.01" y1="1237.5656" y2="1245.19"/><ellipse cx="922.7704" cy="1231.8474" fill="none" rx="4" ry="4" style="stroke:#181818;stroke-width:1;"/><text fill="#000000" font-family="sans-serif" font-size="13" lengthAdjust="spacing" textLength="96.9478" x="877.87" y="1017.8184">may have chats</text></g><!--link Chats to Messages--><g class="link" data-entity-1="Chats" data-entity-2="Messages" data-source-line="152" data-uid="lnk20" id="link_Chats_Messages"><path codeLine="152" d="M947.06,1384.43 C947.06,1430.76 947.06,1467.52 947.06,1517.22" fill="none" id="Chats-Messages" style="stroke:#181818;stroke-width:1;"/><line style="stroke:#181818;stroke-width:1;" x1="943.06" x2="951.06" y1="1380.43" y2="1380.43"/><line style="stroke:#181818;stroke-width:1;" x1="943.06" x2="951.06" y1="1383.43" y2="1383.43"/><line style="stroke:#181818;stroke-width:1;" x1="947.06" x2="947.06" y1="1384.43" y2="1376.43"/><line style="stroke:#181818;stroke-width:1;" x1="947.06" x2="953.06" y1="1527.22" y2="1535.22"/><line style="stroke:#181818;stroke-width:1;" x1="947.06" x2="941.06" y1="1527.22" y2="1535.22"/><line style="stroke:#181818;stroke-width:1;" x1="947.06" x2="947.06" y1="1527.22" y2="1535.22"/><ellipse cx="947.06" cy="1521.22" fill="none" rx="4" ry="4" style="stroke:#181818;stroke-width:1;"/><text fill="#000000" font-family="sans-serif" font-size="13" lengthAdjust="spacing" textLength="119.1074" x="948.06" y="1493.8584">contains messages</text></g><!--link Linkings to Orders--><g class="link" data-entity-1="Linkings" data-entity-2="Orders" data-source-line="154" data-uid="lnk21" id="link_Linkings_Orders"><path codeLine="154" d="M575.06,567.48 C575.06,679.48 575.06,816.17 575.06,912.84" fill="none" id="Linkings-Orders" style="stroke:#181818;stroke-width:1;"/><line style="stroke:#181818;stroke-width:1;" x1="571.06" x2="579.06" y1="563.48" y2="563.48"/><line style="stroke:#181818;stroke-width:1;" x1="571.06" x2="579.06" y1="566.48" y2="566.48"/><line style="stroke:#181818;stroke-width:1;" x1="575.06" x2="575.06" y1="567.48" y2="559.48"/><line style="stroke:#181818;stroke-width:1;" x1="575.06" x2="581.06" y1="922.84" y2="930.84"/><line style="stroke:#181818;stroke-width:1;" x1="575.06" x2="569.06" y1="922.84" y2="930.84"/><line style="stroke:#181818;stroke-width:1;" x1="575.06" x2="575.06" y1="922.84" y2="930.84"/><ellipse cx="575.06" cy="916.84" fill="none" rx="4" ry="4" style="stroke:#181818;stroke-width:1;"/><text fill="#000000" font-family="sans-serif" font-size="13" lengthAdjust="spacing" textLength="102.7686" x="576.06" y="766.6884">receives/creates</text></g><!--link Orders to Complaints--><g class="link" data-entity-1="Orders" data-entity-2="Complaints" data-source-line="156" data-uid="lnk22" id="link_Orders_Complaints"><path codeLine="156" d="M575.06,1102.67 C575.06,1126.3 575.06,1129.83 575.06,1155.97" fill="none" id="Orders-Complaints" style="stroke:#181818;stroke-width:1;"/><line style="stroke:#181818;stroke-width:1;" x1="571.06" x2="579.06" y1="1098.67" y2="1098.67"/><line style="stroke:#181818;stroke-width:1;" x1="571.06" x2="579.06" y1="1101.67" y2="1101.67"/><line style="stroke:#181818;stroke-width:1;" x1="575.06" x2="575.06" y1="1102.67" y2="1094.67"/><line style="stroke:#181818;stroke-width:1;" x1="575.06" x2="575.06" y1="1159.97" y2="1170.97"/><ellipse cx="575.06" cy="1159.97" fill="none" rx="4" ry="4" style="stroke:#181818;stroke-width:1;"/><line style="stroke:#181818;stroke-width:1;" x1="579.06" x2="571.06" y1="1166.97" y2="1166.97"/><text fill="#000000" font-family="sans-serif" font-size="13" lengthAdjust="spacing" textLength="59.4395" x="576.06" y="1138.0284">may have</text></g><!--link Complaints to ComplaintHistory--><g class="link" data-entity-1="Complaints" data-entity-2="ComplaintHistory" data-source-line="157" data-uid="lnk23" id="link_Complaints_ComplaintHistory"><path codeLine="157" d="M575.06,1458.7 C575.06,1484.57 575.06,1494.96 575.06,1518.85" fill="none" id="Complaints-ComplaintHistory" style="stroke:#181818;stroke-width:1;"/><line style="stroke:#181818;stroke-width:1;" x1="571.06" x2="579.06" y1="1454.7" y2="1454.7"/><line style="stroke:#181818;stroke-width:1;" x1="571.06" x2="579.06" y1="1457.7" y2="1457.7"/><line style="stroke:#181818;stroke-width:1;" x1="575.06" x2="575.06" y1="1458.7" y2="1450.7"/><line style="stroke:#181818;stroke-width:1;" x1="575.06" x2="581.06" y1="1518.85" y2="1526.85"/><line style="stroke:#181818;stroke-width:1;" x1="575.06" x2="569.06" y1="1518.85" y2="1526.85"/><line style="stroke:#181818;stroke-width:1;" x1="575.06" x2="575.06" y1="1518.85" y2="1526.85"/><line style="stroke:#181818;stroke-width:1;" x1="579.06" x2="571.06" y1="1516.85" y2="1516.85"/><text fill="#000000" font-family="sans-serif" font-size="13" lengthAdjust="spacing" textLength="26.4761" x="576.06" y="1493.8584">logs</text></g><!--SRC=[fLVRRkCs47tNLn1vCL0ezNkGkYYsMopGRhTea6U1faOI6uhKyX9NZVFl7Lvqi-Kus_h1aCZXSERmpE5eGpwf0x6AQA0beR8a1yqjt6KRqbZRcRljjXDKMjUAxvbgjnnkIqvhJTiissxC4vSTnHSYk0JRTq2KjetQR3Dqy55QRZcOB0F_r9D70zgGbupWxplYyAtW9RaZqhLxqEJ-lWO9cbeeTpkIh73JZih-nF2NNtUxO13-ZANM6Pm7D20lb5d-33anpdGWIoXV9zEAQsCBILj0SsCrbtKO5tHrk6kKX29jkvW9Vz1IBavMK6CEIfShrbe968FySi1KS_APIbhxXmTBgseMACC3GI1-ihYYn2VBMuYHAaPdVhJByIadJ_-yPgyZqXy2QeZzYFOwZZF0lm5ECjcUGrQ2OPftbYjv0h6gLU6qE1rbT65Bjbia4MbflmV2C1aC-SUuMI3O49PnNIUuXuufQLmBUWx07rgLZjaf_ouDN07WVOJxXgmxpgpJa18NtDZxEBjBM2lsD6qq8mjOv5RHQSvWd8yeD1fCeqIv7DuxyRHc7lvQBddhsWA96OWyctUIsnMoRZUFlpy-VFmPIpc-qkUwGAJy2OtXukG4-MzSeXpK4-GY3bn1V3YzuWhmmtaNxpaW3LyT6DoasFV5Yj1uQynfsDjJlgh8eL74O3OfPuIvKvxmRpiP0fivYIkXJ8vG4dYDhuN1oZKjbUkEzZtIgA9EM897mWsXOmWwULglJmOTffeJNvu8U8xB_W8MXfpqfp18O0l6eDpCQcsZ0cUfI1jSb1tNbUSJq-5_ySIQZZxmx6gfhHDaFCcH6G7OTSmysdX1CV2NLzns3fLLbegBLN42PCezzrh14Aa0fMburuKdppi1rcE92hX8_4njrl8Vynh5w9B1CFtLqRZ98lHXTfaLOa7YI8NgwMF7IoBKzg98FpHq5YR3j_zxIfTIzG4XkVAH_I6mA41uaJ1USHO2C6H-Ogi4dEB_71ayfP0eVLtMprET7OZn5zl50rlSEnR-zacvagkSy1Rtph6h410hRA_AVbvUtfhmAhZu8IxrDu6o3UW3Dx2eQyone1SIzpUwe5pQvPKUXgua_oOPDSKetbIukKu6SGihKA9ErSsgAmBtu6TdXD2yRYoX1zedLtY9Kk4ZzxxQs1gjkyA-gVQ2C_ewD22dzMl-bE-urhnbQsAWEjzLSObbfcgKOOnxzEO5rYZnx9-OK6RHOLxi1C8QvySBgIoObKltlwhlI8vFs5yetOyKQUBxrIjudKYJ4ZSUxhTOCkkDu50ii8oZ5pA-a5YOtv0_GOJc43yXfexsUBozFRwaZuaxSWCOlEhDpQcDUfcwG3HJLOKB5bQl2ZqTfyO5hQYtfcRiDcxUPpuK2BfFDo4PubnU4BW6RR6ranZAE9h2FJDreT3acTTZqd4qQQZl4xowtMHZPCdVQ8JDD6deCqIznPp2HFA6XgEgpi8RbDL3TkeuHOFM6XZWru7PHkgQATHWUfphrYoG26iQJq2TaHZjyPi1NVuB]--></g></svg>