<svg xmlns="http://www.w3.org/2000/svg" xmlns:xlink="http://www.w3.org/1999/xlink" contentStyleType="text/css" data-diagram-type="DESCRIPTION" height="1133px" preserveAspectRatio="none" style="width:974px;height:1133px;background:#FFFFFF;" version="1.1" viewBox="0 0 974 1133" width="974px" zoomAndPan="magnify"><defs/><g><!--cluster Platform--><g class="cluster" data-entity="Platform" data-source-line="42" data-uid="ent0012" id="cluster_Platform"><rect fill="none" height="1120" rx="2.5" ry="2.5" style="stroke:#181818;stroke-width:1;" width="617.31" x="171.37" y="7"/><text fill="#000000" font-family="sans-serif" font-size="14" font-weight="bold" lengthAdjust="spacing" textLength="61.7285" x="449.1607" y="22.5352">Platform</text></g><!--cluster Consumer Features--><g class="cluster" data-entity="Consumer Features" data-source-line="44" data-uid="ent0013" id="cluster_Consumer Features"><rect fill="none" height="815" rx="2.5" ry="2.5" style="stroke:#181818;stroke-width:1;" width="227.97" x="536.71" y="51"/><text fill="#000000" font-family="sans-serif" font-size="14" font-weight="bold" lengthAdjust="spacing" textLength="139.8018" x="580.7941" y="66.5352">Consumer Features</text></g><!--cluster Supplier Features--><g class="cluster" data-entity="Supplier Features" data-source-line="61" data-uid="ent0025" id="cluster_Supplier Features"><rect fill="none" height="1053" rx="2.5" ry="2.5" style="stroke:#181818;stroke-width:1;" width="248.34" x="195.37" y="50"/><text fill="#000000" font-family="sans-serif" font-size="14" font-weight="bold" lengthAdjust="spacing" textLength="125.8564" x="256.6118" y="65.5352">Supplier Features</text></g><!--entity RequestLink--><g class="entity" data-entity="RequestLink" data-source-line="45" data-uid="ent0014" id="entity_RequestLink"><ellipse cx="650.7019" cy="376.0024" fill="#FFFFFF" rx="95.3619" ry="21.4724" style="stroke:#000000;stroke-width:0.5;"/><text fill="#000000" font-family="sans-serif" font-size="14" lengthAdjust="spacing" textLength="165.3066" x="568.0486" y="380.7465">Request Link to Supplier</text></g><!--entity BrowseCatalog--><g class="entity" data-entity="BrowseCatalog" data-source-line="46" data-uid="ent0015" id="entity_BrowseCatalog"><ellipse cx="650.7022" cy="303.0044" fill="#FFFFFF" rx="69.4722" ry="16.2944" style="stroke:#000000;stroke-width:0.5;"/><text fill="#000000" font-family="sans-serif" font-size="14" lengthAdjust="spacing" textLength="104.2959" x="598.5543" y="307.7486">Browse Catalog</text></g><!--entity PlaceOrder--><g class="entity" data-entity="PlaceOrder" data-source-line="47" data-uid="ent0016" id="entity_PlaceOrder"><ellipse cx="650.6963" cy="100.999" fill="#FFFFFF" rx="58.0563" ry="14.659" style="stroke:#000000;stroke-width:0.5;"/><text fill="#000000" font-family="sans-serif" font-size="14" lengthAdjust="spacing" textLength="77.8613" x="611.7656" y="105.7431">Place Order</text></g><!--entity TrackOrder--><g class="entity" data-entity="TrackOrder" data-source-line="48" data-uid="ent0017" id="entity_TrackOrder"><ellipse cx="650.704" cy="236.999" fill="#FFFFFF" rx="60.304" ry="14.659" style="stroke:#000000;stroke-width:0.5;"/><text fill="#000000" font-family="sans-serif" font-size="14" lengthAdjust="spacing" textLength="81.04" x="610.1839" y="241.7431">Track Order</text></g><!--entity SubmitComplaint--><g class="entity" data-entity="SubmitComplaint" data-source-line="49" data-uid="ent0018" id="entity_SubmitComplaint"><ellipse cx="650.7045" cy="450.0029" fill="#FFFFFF" rx="76.5145" ry="17.7029" style="stroke:#000000;stroke-width:0.5;"/><text fill="#000000" font-family="sans-serif" font-size="14" lengthAdjust="spacing" textLength="121.7412" x="589.8339" y="454.747">Submit Complaint</text></g><!--entity ChatWithSupplier--><g class="entity" data-entity="ChatWithSupplier" data-source-line="50" data-uid="ent0019" id="entity_ChatWithSupplier"><ellipse cx="650.7034" cy="168.9967" fill="#FFFFFF" rx="77.6334" ry="17.9267" style="stroke:#000000;stroke-width:0.5;"/><text fill="#000000" font-family="sans-serif" font-size="14" lengthAdjust="spacing" textLength="124.4346" x="588.4861" y="173.7408">Chat with Supplier</text></g><!--entity CreateManagerAccountConsumer--><g class="entity" data-entity="CreateManagerAccountConsumer" data-source-line="53" data-uid="ent0020" id="entity_CreateManagerAccountConsumer"><ellipse cx="650.6967" cy="749.0013" fill="#FFFFFF" rx="95.9067" ry="21.5813" style="stroke:#000000;stroke-width:0.5;"/><text fill="#000000" font-family="sans-serif" font-size="14" lengthAdjust="spacing" textLength="166.5234" x="567.435" y="753.7455">Create Manager Account</text></g><!--entity RemoveManagerAccountConsumer--><g class="entity" data-entity="RemoveManagerAccountConsumer" data-source-line="54" data-uid="ent0021" id="entity_RemoveManagerAccountConsumer"><ellipse cx="650.7024" cy="670.9985" fill="#FFFFFF" rx="95.5424" ry="21.5085" style="stroke:#000000;stroke-width:0.5;"/><text fill="#000000" font-family="sans-serif" font-size="14" lengthAdjust="spacing" textLength="165.71" x="567.8474" y="675.7426">Delete Manager Account</text></g><!--entity CreateConsumerAccountConsumer--><g class="entity" data-entity="CreateConsumerAccountConsumer" data-source-line="55" data-uid="ent0022" id="entity_CreateConsumerAccountConsumer"><ellipse cx="650.7038" cy="521.9988" fill="#FFFFFF" rx="83.7438" ry="19.1488" style="stroke:#000000;stroke-width:0.5;"/><text fill="#000000" font-family="sans-serif" font-size="14" lengthAdjust="spacing" textLength="138.8584" x="581.2746" y="526.7429">Create Staff Account</text></g><!--entity RemoveConsumerAccountConsumer--><g class="entity" data-entity="RemoveConsumerAccountConsumer" data-source-line="56" data-uid="ent0023" id="entity_RemoveConsumerAccountConsumer"><ellipse cx="650.7043" cy="594.9989" fill="#FFFFFF" rx="83.3943" ry="19.0789" style="stroke:#000000;stroke-width:0.5;"/><text fill="#000000" font-family="sans-serif" font-size="14" lengthAdjust="spacing" textLength="138.0449" x="581.6819" y="599.743">Delete Staff Account</text></g><!--entity DeleteConsumerAccountConsumer--><g class="entity" data-entity="DeleteConsumerAccountConsumer" data-source-line="57" data-uid="ent0024" id="entity_DeleteConsumerAccountConsumer"><ellipse cx="650.7029" cy="827.9966" fill="#FFFFFF" rx="97.9829" ry="21.9966" style="stroke:#000000;stroke-width:0.5;"/><text fill="#000000" font-family="sans-serif" font-size="14" lengthAdjust="spacing" textLength="171.1445" x="565.1307" y="832.7407">Delete Company Account</text></g><!--entity ApproveDenyLink--><g class="entity" data-entity="ApproveDenyLink" data-source-line="63" data-uid="ent0026" id="entity_ApproveDenyLink"><ellipse cx="319.5407" cy="270.9981" fill="#FFFFFF" rx="106.4907" ry="23.6981" style="stroke:#000000;stroke-width:0.5;"/><text fill="#000000" font-family="sans-serif" font-size="14" lengthAdjust="spacing" textLength="189.8545" x="224.6135" y="275.7423">Approve/Deny Link Request</text></g><!--entity HandleComplaint--><g class="entity" data-entity="HandleComplaint" data-source-line="64" data-uid="ent0027" id="entity_HandleComplaint"><ellipse cx="319.5389" cy="353.9958" fill="#FFFFFF" rx="107.4289" ry="23.8858" style="stroke:#000000;stroke-width:0.5;"/><text fill="#000000" font-family="sans-serif" font-size="14" lengthAdjust="spacing" textLength="191.8984" x="223.5897" y="358.7399">Handle First-Line Complaint</text></g><!--entity EscalateComplaint--><g class="entity" data-entity="EscalateComplaint" data-source-line="65" data-uid="ent0028" id="entity_EscalateComplaint"><ellipse cx="319.5378" cy="448.0016" fill="#FFFFFF" rx="79.4578" ry="18.2916" style="stroke:#000000;stroke-width:0.5;"/><text fill="#000000" font-family="sans-serif" font-size="14" lengthAdjust="spacing" textLength="128.7891" x="255.1433" y="452.7457">Escalate Complaint</text></g><!--entity ChatWithConsumer--><g class="entity" data-entity="ChatWithConsumer" data-source-line="66" data-uid="ent0029" id="entity_ChatWithConsumer"><ellipse cx="319.5393" cy="176.9959" fill="#FFFFFF" rx="83.5293" ry="19.1059" style="stroke:#000000;stroke-width:0.5;"/><text fill="#000000" font-family="sans-serif" font-size="14" lengthAdjust="spacing" textLength="138.3594" x="250.3597" y="181.74">Chat with Consumer</text></g><!--entity ManageCatalog--><g class="entity" data-entity="ManageCatalog" data-source-line="69" data-uid="ent0030" id="entity_ManageCatalog"><ellipse cx="319.5353" cy="618.0011" fill="#FFFFFF" rx="71.3053" ry="16.6611" style="stroke:#000000;stroke-width:0.5;"/><text fill="#000000" font-family="sans-serif" font-size="14" lengthAdjust="spacing" textLength="108.9307" x="265.07" y="622.7452">Manage Catalog</text></g><!--entity ManageInventory--><g class="entity" data-entity="ManageInventory" data-source-line="70" data-uid="ent0031" id="entity_ManageInventory"><ellipse cx="319.543" cy="687.0006" fill="#FFFFFF" rx="76.003" ry="17.6006" style="stroke:#000000;stroke-width:0.5;"/><text fill="#000000" font-family="sans-serif" font-size="14" lengthAdjust="spacing" textLength="120.5039" x="259.2911" y="691.7447">Manage Inventory</text></g><!--entity AcceptRejectOrder--><g class="entity" data-entity="AcceptRejectOrder" data-source-line="71" data-uid="ent0032" id="entity_AcceptRejectOrder"><ellipse cx="319.5388" cy="103.9978" fill="#FFFFFF" rx="83.2388" ry="19.0478" style="stroke:#000000;stroke-width:0.5;"/><text fill="#000000" font-family="sans-serif" font-size="14" lengthAdjust="spacing" textLength="137.6826" x="250.6975" y="108.7419">Accept/Reject Order</text></g><!--entity ResolveComplaint--><g class="entity" data-entity="ResolveComplaint" data-source-line="72" data-uid="ent0033" id="entity_ResolveComplaint"><ellipse cx="319.5405" cy="542.0041" fill="#FFFFFF" rx="108.1705" ry="24.0341" style="stroke:#000000;stroke-width:0.5;"/><text fill="#000000" font-family="sans-serif" font-size="14" lengthAdjust="spacing" textLength="193.5117" x="222.7847" y="546.7482">Resolve Escalated Complaint</text></g><!--entity CreateManagerAccount--><g class="entity" data-entity="CreateManagerAccount" data-source-line="75" data-uid="ent0034" id="entity_CreateManagerAccount"><ellipse cx="319.5367" cy="841.0013" fill="#FFFFFF" rx="95.9067" ry="21.5813" style="stroke:#000000;stroke-width:0.5;"/><text fill="#000000" font-family="sans-serif" font-size="14" lengthAdjust="spacing" textLength="166.5234" x="236.275" y="845.7455">Create Manager Account</text></g><!--entity RemoveManagerAccount--><g class="entity" data-entity="RemoveManagerAccount" data-source-line="76" data-uid="ent0035" id="entity_RemoveManagerAccount"><ellipse cx="319.5424" cy="918.9985" fill="#FFFFFF" rx="95.5424" ry="21.5085" style="stroke:#000000;stroke-width:0.5;"/><text fill="#000000" font-family="sans-serif" font-size="14" lengthAdjust="spacing" textLength="165.71" x="236.6874" y="923.7426">Delete Manager Account</text></g><!--entity CreateSalesRepAccount--><g class="entity" data-entity="CreateSalesRepAccount" data-source-line="77" data-uid="ent0036" id="entity_CreateSalesRepAccount"><ellipse cx="319.5438" cy="994.9988" fill="#FFFFFF" rx="83.7438" ry="19.1488" style="stroke:#000000;stroke-width:0.5;"/><text fill="#000000" font-family="sans-serif" font-size="14" lengthAdjust="spacing" textLength="138.8584" x="250.1146" y="999.7429">Create Staff Account</text></g><!--entity RemoveSalesRepAccount--><g class="entity" data-entity="RemoveSalesRepAccount" data-source-line="78" data-uid="ent0037" id="entity_RemoveSalesRepAccount"><ellipse cx="319.5443" cy="1067.9989" fill="#FFFFFF" rx="83.3943" ry="19.0789" style="stroke:#000000;stroke-width:0.5;"/><text fill="#000000" font-family="sans-serif" font-size="14" lengthAdjust="spacing" textLength="138.0449" x="250.5219" y="1072.743">Delete Staff Account</text></g><!--entity DeleteSupplierAccount--><g class="entity" data-entity="DeleteSupplierAccount" data-source-line="79" data-uid="ent0038" id="entity_DeleteSupplierAccount"><ellipse cx="319.5429" cy="761.9966" fill="#FFFFFF" rx="97.9829" ry="21.9966" style="stroke:#000000;stroke-width:0.5;"/><text fill="#000000" font-family="sans-serif" font-size="14" lengthAdjust="spacing" textLength="171.1445" x="233.9707" y="766.7407">Delete Company Account</text></g><!--entity ConsumerStaff--><g class="entity" data-entity="ConsumerStaff" data-source-line="25" data-uid="ent0002" id="entity_ConsumerStaff"><ellipse cx="901.8254" cy="281.4983" fill="#ADD8E6" rx="8" ry="8" style="stroke:#0000FF;stroke-width:0.5;"/><path d="M901.8254,289.4983 L901.8254,316.4983 M888.8254,297.4983 L914.8254,297.4983 M901.8254,316.4983 L888.8254,331.4983 M901.8254,316.4983 L914.8254,331.4983" fill="none" style="stroke:#0000FF;stroke-width:0.5;"/><text fill="#000000" font-family="sans-serif" font-size="14" lengthAdjust="spacing" textLength="104.6309" x="849.51" y="346.5334">Consumer Staff</text><text fill="#000000" font-family="sans-serif" font-size="14" font-style="italic" lengthAdjust="spacing" textLength="45.4727" x="879.0891" y="270.0452">&#171;Staff&#187;</text></g><!--entity ConsumerManager--><g class="entity" data-entity="ConsumerManager" data-source-line="26" data-uid="ent0003" id="entity_ConsumerManager"><ellipse cx="901.8279" cy="530.4983" fill="#90EE90" rx="8" ry="8" style="stroke:#008000;stroke-width:0.5;"/><path d="M901.8279,538.4983 L901.8279,565.4983 M888.8279,546.4983 L914.8279,546.4983 M901.8279,565.4983 L888.8279,580.4983 M901.8279,565.4983 L914.8279,580.4983" fill="none" style="stroke:#008000;stroke-width:0.5;"/><text fill="#000000" font-family="sans-serif" font-size="14" lengthAdjust="spacing" textLength="132.2959" x="835.68" y="595.5334">Consumer Manager</text><text fill="#000000" font-family="sans-serif" font-size="14" font-style="italic" lengthAdjust="spacing" textLength="73.1377" x="865.2591" y="519.0452">&#171;Manager&#187;</text></g><!--entity ConsumerOwner--><g class="entity" data-entity="ConsumerOwner" data-source-line="27" data-uid="ent0004" id="entity_ConsumerOwner"><ellipse cx="901.824" cy="687.4983" fill="#F08080" rx="8" ry="8" style="stroke:#FF0000;stroke-width:0.5;"/><path d="M901.824,695.4983 L901.824,722.4983 M888.824,703.4983 L914.824,703.4983 M901.824,722.4983 L888.824,737.4983 M901.824,722.4983 L914.824,737.4983" fill="none" style="stroke:#FF0000;stroke-width:0.5;"/><text fill="#000000" font-family="sans-serif" font-size="14" lengthAdjust="spacing" textLength="117.708" x="842.97" y="752.5334">Consumer Owner</text><text fill="#000000" font-family="sans-serif" font-size="14" font-style="italic" lengthAdjust="spacing" textLength="58.5498" x="872.5491" y="676.0452">&#171;Owner&#187;</text></g><!--entity SalesRep--><g class="entity" data-entity="SalesRep" data-source-line="30" data-uid="ent0005" id="entity_SalesRep"><ellipse cx="65.183" cy="291.4983" fill="#ADD8E6" rx="8" ry="8" style="stroke:#0000FF;stroke-width:0.5;"/><path d="M65.183,299.4983 L65.183,326.4983 M52.183,307.4983 L78.183,307.4983 M65.183,326.4983 L52.183,341.4983 M65.183,326.4983 L78.183,341.4983" fill="none" style="stroke:#0000FF;stroke-width:0.5;"/><text fill="#000000" font-family="sans-serif" font-size="14" lengthAdjust="spacing" textLength="90.7061" x="19.83" y="356.5334">Supplier Staff</text><text fill="#000000" font-family="sans-serif" font-size="14" font-style="italic" lengthAdjust="spacing" textLength="45.4727" x="42.4467" y="280.0452">&#171;Staff&#187;</text></g><!--entity SupplierManager--><g class="entity" data-entity="SupplierManager" data-source-line="31" data-uid="ent0006" id="entity_SupplierManager"><ellipse cx="65.1855" cy="596.4983" fill="#90EE90" rx="8" ry="8" style="stroke:#008000;stroke-width:0.5;"/><path d="M65.1855,604.4983 L65.1855,631.4983 M52.1855,612.4983 L78.1855,612.4983 M65.1855,631.4983 L52.1855,646.4983 M65.1855,631.4983 L78.1855,646.4983" fill="none" style="stroke:#008000;stroke-width:0.5;"/><text fill="#000000" font-family="sans-serif" font-size="14" lengthAdjust="spacing" textLength="118.3711" x="6" y="661.5334">Supplier Manager</text><text fill="#000000" font-family="sans-serif" font-size="14" font-style="italic" lengthAdjust="spacing" textLength="73.1377" x="28.6167" y="585.0452">&#171;Manager&#187;</text></g><!--entity SupplierOwner--><g class="entity" data-entity="SupplierOwner" data-source-line="32" data-uid="ent0007" id="entity_SupplierOwner"><ellipse cx="65.1816" cy="867.4983" fill="#F08080" rx="8" ry="8" style="stroke:#FF0000;stroke-width:0.5;"/><path d="M65.1816,875.4983 L65.1816,902.4983 M52.1816,883.4983 L78.1816,883.4983 M65.1816,902.4983 L52.1816,917.4983 M65.1816,902.4983 L78.1816,917.4983" fill="none" style="stroke:#FF0000;stroke-width:0.5;"/><text fill="#000000" font-family="sans-serif" font-size="14" lengthAdjust="spacing" textLength="103.7832" x="13.29" y="932.5334">Supplier Owner</text><text fill="#000000" font-family="sans-serif" font-size="14" font-style="italic" lengthAdjust="spacing" textLength="58.5498" x="35.9067" y="856.0452">&#171;Owner&#187;</text></g><!--reverse link ConsumerManager to ConsumerOwner--><g class="link" data-entity-1="ConsumerManager" data-entity-2="ConsumerOwner" data-source-line="35" data-uid="lnk8" id="link_ConsumerManager_ConsumerOwner"><path d="M901.83,616.87 C901.83,637.94 901.83,641.01 901.83,662.08" fill="none" id="ConsumerManager-backto-ConsumerOwner" style="stroke:#181818;stroke-width:1;"/><polygon fill="none" points="901.83,598.87,895.83,616.87,907.83,616.87,901.83,598.87" style="stroke:#181818;stroke-width:1;"/></g><!--reverse link ConsumerStaff to ConsumerManager--><g class="link" data-entity-1="ConsumerStaff" data-entity-2="ConsumerManager" data-source-line="36" data-uid="lnk9" id="link_ConsumerStaff_ConsumerManager"><path d="M901.83,367.63 C901.83,419.52 901.83,453.42 901.83,505.31" fill="none" id="ConsumerStaff-backto-ConsumerManager" style="stroke:#181818;stroke-width:1;"/><polygon fill="none" points="901.83,349.63,895.83,367.63,907.83,367.63,901.83,349.63" style="stroke:#181818;stroke-width:1;"/></g><!--reverse link SupplierManager to SupplierOwner--><g class="link" data-entity-1="SupplierManager" data-entity-2="SupplierOwner" data-source-line="39" data-uid="lnk10" id="link_SupplierManager_SupplierOwner"><path d="M65.19,682.85 C65.19,741.95 65.19,783.05 65.19,842.16" fill="none" id="SupplierManager-backto-SupplierOwner" style="stroke:#181818;stroke-width:1;"/><polygon fill="none" points="65.19,664.85,59.19,682.85,71.19,682.85,65.19,664.85" style="stroke:#181818;stroke-width:1;"/></g><!--reverse link SalesRep to SupplierManager--><g class="link" data-entity-1="SalesRep" data-entity-2="SupplierManager" data-source-line="40" data-uid="lnk11" id="link_SalesRep_SupplierManager"><path d="M65.19,377.91 C65.19,448.35 65.19,500.79 65.19,571.24" fill="none" id="SalesRep-backto-SupplierManager" style="stroke:#181818;stroke-width:1;"/><polygon fill="none" points="65.19,359.91,59.19,377.91,71.19,377.91,65.19,359.91" style="stroke:#181818;stroke-width:1;"/></g><!--reverse link RequestLink to ConsumerStaff--><g class="link" data-entity-1="RequestLink" data-entity-2="ConsumerStaff" data-source-line="89" data-uid="lnk40" id="link_RequestLink_ConsumerStaff"><path d="M720.86,358.194 C746.31,351.454 770.07,344.92 796.68,337 C813.81,331.9 832.41,325.96 849.08,320.49" fill="none" id="RequestLink-backto-ConsumerStaff" style="stroke:#0000FF;stroke-width:1;"/><polygon fill="#0000FF" points="715.06,359.73,724.7841,361.2926,719.8934,358.45,722.736,353.5592,715.06,359.73" style="stroke:#0000FF;stroke-width:1;"/></g><!--reverse link BrowseCatalog to ConsumerStaff--><g class="link" data-entity-1="BrowseCatalog" data-entity-2="ConsumerStaff" data-source-line="90" data-uid="lnk42" id="link_BrowseCatalog_ConsumerStaff"><path d="M726.43,303 C767.19,303 812,303 849.31,303" fill="none" id="BrowseCatalog-backto-ConsumerStaff" style="stroke:#0000FF;stroke-width:1;"/><polygon fill="#0000FF" points="720.43,303,729.43,307,725.43,303,729.43,299,720.43,303" style="stroke:#0000FF;stroke-width:1;"/></g><!--reverse link PlaceOrder to ConsumerStaff--><g class="link" data-entity-1="PlaceOrder" data-entity-2="ConsumerStaff" data-source-line="91" data-uid="lnk44" id="link_PlaceOrder_ConsumerStaff"><path d="M714.18,104.363 C742.89,108.093 771.07,115.67 796.68,134 C839,164.29 867.63,217.64 883.99,256.32" fill="none" id="PlaceOrder-backto-ConsumerStaff" style="stroke:#0000FF;stroke-width:1;"/><polygon fill="#0000FF" points="708.23,103.59,716.6396,108.7162,713.1883,104.2342,717.6703,100.7829,708.23,103.59" style="stroke:#0000FF;stroke-width:1;"/></g><!--reverse link TrackOrder to ConsumerStaff--><g class="link" data-entity-1="TrackOrder" data-entity-2="ConsumerStaff" data-source-line="92" data-uid="lnk46" id="link_TrackOrder_ConsumerStaff"><path d="M704.5475,247.356 C733.0575,253.206 764.23,260.14 796.68,269 C813.93,273.71 832.55,279.54 849.21,285.04" fill="none" id="TrackOrder-backto-ConsumerStaff" style="stroke:#0000FF;stroke-width:1;"/><polygon fill="#0000FF" points="698.67,246.15,706.6823,251.8774,703.568,247.155,708.2903,244.0407,698.67,246.15" style="stroke:#0000FF;stroke-width:1;"/></g><!--reverse link SubmitComplaint to ConsumerStaff--><g class="link" data-entity-1="SubmitComplaint" data-entity-2="ConsumerStaff" data-source-line="93" data-uid="lnk48" id="link_SubmitComplaint_ConsumerStaff"><path d="M725.6326,440.8388 C751.0326,435.7388 773.43,428.6 796.68,415 C824.52,398.71 849.4,372.66 867.85,349.77" fill="none" id="SubmitComplaint-backto-ConsumerStaff" style="stroke:#0000FF;stroke-width:1;"/><polygon fill="#0000FF" points="719.75,442.02,729.3613,444.17,724.6522,441.0357,727.7865,436.3265,719.75,442.02" style="stroke:#0000FF;stroke-width:1;"/></g><!--reverse link ChatWithSupplier to ConsumerStaff--><g class="link" data-entity-1="ChatWithSupplier" data-entity-2="ConsumerStaff" data-source-line="94" data-uid="lnk50" id="link_ChatWithSupplier_ConsumerStaff"><path d="M724.0723,179.3513 C749.6823,184.7213 772.66,191.9 796.68,205 C820.55,218.01 843.05,237.83 860.99,256.24" fill="none" id="ChatWithSupplier-backto-ConsumerStaff" style="stroke:#0000FF;stroke-width:1;"/><polygon fill="#0000FF" points="718.2,178.12,726.1876,183.8818,723.0936,179.1461,727.8293,176.0521,718.2,178.12" style="stroke:#0000FF;stroke-width:1;"/></g><!--reverse link CreateConsumerAccountConsumer to ConsumerManager--><g class="link" data-entity-1="CreateConsumerAccountConsumer" data-entity-2="ConsumerManager" data-source-line="97" data-uid="lnk52" id="link_CreateConsumerAccountConsumer_ConsumerManager"><path d="M731.3869,531.5975 C766.2569,535.7975 801.58,540.05 835.33,544.11" fill="none" id="CreateConsumerAccountConsumer-backto-ConsumerManager" style="stroke:#008000;stroke-width:1;"/><polygon fill="#008000" points="725.43,530.88,733.8871,535.9275,730.3941,531.4779,734.8438,527.985,725.43,530.88" style="stroke:#008000;stroke-width:1;"/></g><!--reverse link RemoveConsumerAccountConsumer to ConsumerManager--><g class="link" data-entity-1="RemoveConsumerAccountConsumer" data-entity-2="ConsumerManager" data-source-line="98" data-uid="lnk54" id="link_RemoveConsumerAccountConsumer_ConsumerManager"><path d="M724.3725,582.4593 C760.6925,576.1893 799.52,569.48 835.6,563.26" fill="none" id="RemoveConsumerAccountConsumer-backto-ConsumerManager" style="stroke:#008000;stroke-width:1;"/><polygon fill="#008000" points="718.46,583.48,728.0093,585.8907,723.3871,582.6294,726.6484,578.0073,718.46,583.48" style="stroke:#008000;stroke-width:1;"/></g><!--reverse link CreateManagerAccountConsumer to ConsumerOwner--><g class="link" data-entity-1="CreateManagerAccountConsumer" data-entity-2="ConsumerOwner" data-source-line="101" data-uid="lnk56" id="link_CreateManagerAccountConsumer_ConsumerOwner"><path d="M735.7643,735.4997 C772.2943,729.6397 809.12,723.72 842.73,718.33" fill="none" id="CreateManagerAccountConsumer-backto-ConsumerOwner" style="stroke:#FF0000;stroke-width:1;"/><polygon fill="#FF0000" points="729.84,736.45,739.36,738.974,734.7769,735.658,738.0928,731.075,729.84,736.45" style="stroke:#FF0000;stroke-width:1;"/></g><!--reverse link RemoveManagerAccountConsumer to ConsumerOwner--><g class="link" data-entity-1="RemoveManagerAccountConsumer" data-entity-2="ConsumerOwner" data-source-line="102" data-uid="lnk58" id="link_RemoveManagerAccountConsumer_ConsumerOwner"><path d="M736.7915,683.9842 C773.1315,689.5242 809.5,695.07 842.81,700.15" fill="none" id="RemoveManagerAccountConsumer-backto-ConsumerOwner" style="stroke:#FF0000;stroke-width:1;"/><polygon fill="#FF0000" points="730.86,683.08,739.1544,688.3907,735.8029,683.8335,740.36,680.4821,730.86,683.08" style="stroke:#FF0000;stroke-width:1;"/></g><!--reverse link DeleteConsumerAccountConsumer to ConsumerOwner--><g class="link" data-entity-1="DeleteConsumerAccountConsumer" data-entity-2="ConsumerOwner" data-source-line="103" data-uid="lnk60" id="link_DeleteConsumerAccountConsumer_ConsumerOwner"><path d="M731.015,811.9628 C754.545,805.8128 774.44,798.99 796.68,788 C814.17,779.35 831.67,767.6 847.19,755.8" fill="none" id="DeleteConsumerAccountConsumer-backto-ConsumerOwner" style="stroke:#FF0000;stroke-width:1;"/><polygon fill="#FF0000" points="725.21,813.48,734.929,815.0741,730.0475,812.2156,732.906,807.3341,725.21,813.48" style="stroke:#FF0000;stroke-width:1;"/></g><!--link SalesRep to ApproveDenyLink--><g class="link" data-entity-1="SalesRep" data-entity-2="ApproveDenyLink" data-source-line="106" data-uid="lnk61" id="link_SalesRep_ApproveDenyLink"><path d="M111.01,305.54 C144.79,299.92 186.2113,293.0245 227.1513,286.2145" fill="none" id="SalesRep-to-ApproveDenyLink" style="stroke:#0000FF;stroke-width:1;"/><polygon fill="#0000FF" points="233.07,285.23,223.5356,282.761,228.1378,286.0504,224.8483,290.6526,233.07,285.23" style="stroke:#0000FF;stroke-width:1;"/></g><!--link SalesRep to HandleComplaint--><g class="link" data-entity-1="SalesRep" data-entity-2="HandleComplaint" data-source-line="107" data-uid="lnk62" id="link_SalesRep_HandleComplaint"><path d="M111.01,320.28 C144.44,325.71 185.2176,332.3382 225.8576,338.9382" fill="none" id="SalesRep-to-HandleComplaint" style="stroke:#0000FF;stroke-width:1;"/><polygon fill="#0000FF" points="231.78,339.9,223.5376,334.509,226.8447,339.0985,222.2552,342.4056,231.78,339.9" style="stroke:#0000FF;stroke-width:1;"/></g><!--link SalesRep to EscalateComplaint--><g class="link" data-entity-1="SalesRep" data-entity-2="EscalateComplaint" data-source-line="108" data-uid="lnk63" id="link_SalesRep_EscalateComplaint"><path d="M111.01,356.82 C126.65,370.42 144.93,384.56 163.37,395 C194.71,412.74 227.2006,424.2427 257.8806,433.0027" fill="none" id="SalesRep-to-EscalateComplaint" style="stroke:#0000FF;stroke-width:1;"/><polygon fill="#0000FF" points="263.65,434.65,256.0941,428.3327,258.8421,433.2772,253.8976,436.0253,263.65,434.65" style="stroke:#0000FF;stroke-width:1;"/></g><!--link SalesRep to ChatWithConsumer--><g class="link" data-entity-1="SalesRep" data-entity-2="ChatWithConsumer" data-source-line="109" data-uid="lnk64" id="link_SalesRep_ChatWithConsumer"><path d="M110.93,268.62 C126.57,254.86 144.86,240.55 163.37,230 C193.79,212.66 225.0358,201.4154 255.2858,192.6754" fill="none" id="SalesRep-to-ChatWithConsumer" style="stroke:#0000FF;stroke-width:1;"/><polygon fill="#0000FF" points="261.05,191.01,251.2934,189.6653,256.2465,192.3979,253.5139,197.351,261.05,191.01" style="stroke:#0000FF;stroke-width:1;"/></g><!--link SalesRep to AcceptRejectOrder--><g class="link" data-entity-1="SalesRep" data-entity-2="AcceptRejectOrder" data-source-line="110" data-uid="lnk65" id="link_SalesRep_AcceptRejectOrder"><path d="M80.53,266.1 C95.07,226.52 121.48,171.42 163.37,140 C185.16,123.66 207.2668,115.6869 233.4668,110.6769" fill="none" id="SalesRep-to-AcceptRejectOrder" style="stroke:#0000FF;stroke-width:1;"/><polygon fill="#0000FF" points="239.36,109.55,229.7689,107.3116,234.449,110.4891,231.2714,115.1692,239.36,109.55" style="stroke:#0000FF;stroke-width:1;"/></g><!--link SupplierManager to ManageCatalog--><g class="link" data-entity-1="SupplierManager" data-entity-2="ManageCatalog" data-source-line="113" data-uid="lnk66" id="link_SupplierManager_ManageCatalog"><path d="M124.72,618 C161.41,618 202.93,618 241.74,618" fill="none" id="SupplierManager-to-ManageCatalog" style="stroke:#008000;stroke-width:1;"/><polygon fill="#008000" points="247.74,618,238.74,614,242.74,618,238.74,622,247.74,618" style="stroke:#008000;stroke-width:1;"/></g><!--link SupplierManager to ManageInventory--><g class="link" data-entity-1="SupplierManager" data-entity-2="ManageInventory" data-source-line="114" data-uid="lnk67" id="link_SupplierManager_ManageInventory"><path d="M124.68,639.68 C137.35,644.04 150.74,648.38 163.37,652 C195.23,661.13 225.4396,668.1499 254.7896,674.3499" fill="none" id="SupplierManager-to-ManageInventory" style="stroke:#008000;stroke-width:1;"/><polygon fill="#008000" points="260.66,675.59,252.6811,669.8162,255.768,674.5566,251.0276,677.6435,260.66,675.59" style="stroke:#008000;stroke-width:1;"/></g><!--link SupplierManager to ResolveComplaint--><g class="link" data-entity-1="SupplierManager" data-entity-2="ResolveComplaint" data-source-line="115" data-uid="lnk68" id="link_SupplierManager_ResolveComplaint"><path d="M124.8,596.73 C137.47,592.35 150.82,587.89 163.37,584 C190.56,575.58 214.922,568.7438 241.362,561.7038" fill="none" id="SupplierManager-to-ResolveComplaint" style="stroke:#008000;stroke-width:1;"/><polygon fill="#008000" points="247.16,560.16,237.4338,558.6104,242.3283,561.4465,239.4922,566.341,247.16,560.16" style="stroke:#008000;stroke-width:1;"/></g><!--link SupplierOwner to CreateManagerAccount--><g class="link" data-entity-1="SupplierOwner" data-entity-2="CreateManagerAccount" data-source-line="118" data-uid="lnk69" id="link_SupplierOwner_CreateManagerAccount"><path d="M117.56,879.23 C154.31,872.24 198.4058,863.8515 239.3458,856.0615" fill="none" id="SupplierOwner-to-CreateManagerAccount" style="stroke:#FF0000;stroke-width:1;"/><polygon fill="#FF0000" points="245.24,854.94,235.6509,852.6928,240.3281,855.8746,237.1463,860.5518,245.24,854.94" style="stroke:#FF0000;stroke-width:1;"/></g><!--link SupplierOwner to RemoveManagerAccount--><g class="link" data-entity-1="SupplierOwner" data-entity-2="RemoveManagerAccount" data-source-line="119" data-uid="lnk70" id="link_SupplierOwner_RemoveManagerAccount"><path d="M117.56,895.11 C151.14,899.1 189.8218,903.703 228.5018,908.293" fill="none" id="SupplierOwner-to-RemoveManagerAccount" style="stroke:#FF0000;stroke-width:1;"/><polygon fill="#FF0000" points="234.46,909,225.9941,903.9673,229.4948,908.4108,225.0513,911.9116,234.46,909" style="stroke:#FF0000;stroke-width:1;"/></g><!--link SupplierOwner to CreateSalesRepAccount--><g class="link" data-entity-1="SupplierOwner" data-entity-2="CreateSalesRepAccount" data-source-line="120" data-uid="lnk71" id="link_SupplierOwner_CreateSalesRepAccount"><path d="M117.41,930.87 C131.64,940.92 147.54,950.82 163.37,958 C190.23,970.18 215.7259,977.4073 243.2059,983.1273" fill="none" id="SupplierOwner-to-CreateSalesRepAccount" style="stroke:#FF0000;stroke-width:1;"/><polygon fill="#FF0000" points="249.08,984.35,241.084,978.5999,244.1849,983.3311,239.4537,986.432,249.08,984.35" style="stroke:#FF0000;stroke-width:1;"/></g><!--link SupplierOwner to RemoveSalesRepAccount--><g class="link" data-entity-1="SupplierOwner" data-entity-2="RemoveSalesRepAccount" data-source-line="121" data-uid="lnk72" id="link_SupplierOwner_RemoveSalesRepAccount"><path d="M86.61,935.84 C102.89,967.7 128.71,1008.24 163.37,1032 C185.95,1047.48 208.3894,1055.2296 234.6294,1060.3096" fill="none" id="SupplierOwner-to-RemoveSalesRepAccount" style="stroke:#FF0000;stroke-width:1;"/><polygon fill="#FF0000" points="240.52,1061.45,232.4443,1055.8123,235.6111,1060.4997,230.9238,1063.6665,240.52,1061.45" style="stroke:#FF0000;stroke-width:1;"/></g><!--link SupplierOwner to DeleteSupplierAccount--><g class="link" data-entity-1="SupplierOwner" data-entity-2="DeleteSupplierAccount" data-source-line="122" data-uid="lnk73" id="link_SupplierOwner_DeleteSupplierAccount"><path d="M109.19,842.45 C124.97,827.67 143.8,812.47 163.37,802 C186.55,789.6 207.9259,782.301 233.0359,776.271" fill="none" id="SupplierOwner-to-DeleteSupplierAccount" style="stroke:#FF0000;stroke-width:1;"/><polygon fill="#FF0000" points="238.87,774.87,229.1848,773.0821,234.0082,776.0375,231.0528,780.861,238.87,774.87" style="stroke:#FF0000;stroke-width:1;"/></g><!--link ApproveDenyLink to RequestLink--><g class="link" data-entity-1="ApproveDenyLink" data-entity-2="RequestLink" data-source-line="125" data-uid="lnk74" id="link_ApproveDenyLink_RequestLink"><path d="M382.07,290.63 C443.01,310.07 529.7737,337.747 588.5037,356.477" fill="none" id="ApproveDenyLink-to-RequestLink" style="stroke:#181818;stroke-width:1;stroke-dasharray:7,7;"/><polygon fill="#181818" points="594.22,358.3,586.8609,351.7546,589.4564,356.7808,584.4301,359.3763,594.22,358.3" style="stroke:#181818;stroke-width:1;"/><text fill="#000000" font-family="sans-serif" font-size="13" lengthAdjust="spacing" textLength="57.1924" x="461.71" y="313.7784">&#171;extend&#187;</text></g><!--link ChatWithConsumer to ChatWithSupplier--><g class="link" data-entity-1="ChatWithConsumer" data-entity-2="ChatWithSupplier" data-source-line="126" data-uid="lnk75" id="link_ChatWithConsumer_ChatWithSupplier"><path d="M402.75,175 C454.93,173.73 521.98,172.1 573.05,170.86" fill="none" id="ChatWithConsumer-ChatWithSupplier" style="stroke:#181818;stroke-width:1;"/></g><!--reverse link ApproveDenyLink to ChatWithConsumer--><g class="link" data-entity-1="ApproveDenyLink" data-entity-2="ChatWithConsumer" data-source-line="127" data-uid="lnk77" id="link_ApproveDenyLink_ChatWithConsumer"><path d="M319.54,241.28 C319.54,225.62 319.54,211.34 319.54,196.59" fill="none" id="ApproveDenyLink-backto-ChatWithConsumer" style="stroke:#181818;stroke-width:1;stroke-dasharray:7,7;"/><polygon fill="#181818" points="319.54,247.28,323.54,238.28,319.54,242.28,315.54,238.28,319.54,247.28" style="stroke:#181818;stroke-width:1;"/><text fill="#000000" font-family="sans-serif" font-size="13" lengthAdjust="spacing" textLength="57.1924" x="279.54" y="226.7684">&#171;extend&#187;</text></g><!--reverse link HandleComplaint to EscalateComplaint--><g class="link" data-entity-1="HandleComplaint" data-entity-2="EscalateComplaint" data-source-line="128" data-uid="lnk79" id="link_HandleComplaint_EscalateComplaint"><path d="M319.54,384.24 C319.54,400.2 319.54,414.77 319.54,429.43" fill="none" id="HandleComplaint-backto-EscalateComplaint" style="stroke:#181818;stroke-width:1;stroke-dasharray:7,7;"/><polygon fill="#181818" points="319.54,378.24,315.54,387.24,319.54,383.24,323.54,387.24,319.54,378.24" style="stroke:#181818;stroke-width:1;"/><text fill="#000000" font-family="sans-serif" font-size="13" lengthAdjust="spacing" textLength="57.1924" x="279.54" y="408.8684">&#171;extend&#187;</text></g><!--link EscalateComplaint to ResolveComplaint--><g class="link" data-entity-1="EscalateComplaint" data-entity-2="ResolveComplaint" data-source-line="129" data-uid="lnk80" id="link_EscalateComplaint_ResolveComplaint"><path d="M319.54,466.79 C319.54,481.44 319.54,495.91 319.54,511.79" fill="none" id="EscalateComplaint-to-ResolveComplaint" style="stroke:#181818;stroke-width:1;stroke-dasharray:7,7;"/><polygon fill="#181818" points="319.54,517.79,323.54,508.79,319.54,512.79,315.54,508.79,319.54,517.79" style="stroke:#181818;stroke-width:1;"/><text fill="#000000" font-family="sans-serif" font-size="13" lengthAdjust="spacing" textLength="59.3569" x="278.54" y="497.1984">&#171;include&#187;</text></g><!--link SubmitComplaint to HandleComplaint--><g class="link" data-entity-1="SubmitComplaint" data-entity-2="HandleComplaint" data-source-line="130" data-uid="lnk81" id="link_SubmitComplaint_HandleComplaint"><path d="M601.41,436.07 C579.25,429.67 552.64,421.97 528.71,415 C480.8,401.05 432.4769,386.8907 391.4469,374.8407" fill="none" id="SubmitComplaint-to-HandleComplaint" style="stroke:#181818;stroke-width:1;stroke-dasharray:7,7;"/><polygon fill="#181818" points="385.69,373.15,393.1981,379.524,390.4874,374.5589,395.4524,371.8482,385.69,373.15" style="stroke:#181818;stroke-width:1;"/><text fill="#000000" font-family="sans-serif" font-size="13" lengthAdjust="spacing" textLength="59.3569" x="460.71" y="391.5084">&#171;include&#187;</text></g><!--link PlaceOrder to AcceptRejectOrder--><g class="link" data-entity-1="PlaceOrder" data-entity-2="AcceptRejectOrder" data-source-line="131" data-uid="lnk83" id="link_PlaceOrder_AcceptRejectOrder"><path d="M592.42,101.52 C540.13,102 462.21,102.71 403.18,103.25" fill="none" id="PlaceOrder-AcceptRejectOrder" style="stroke:#181818;stroke-width:1;"/></g><!--SRC=[jLTDRziu4BthLn3kmPk3x7jG16ZSThF05YtiBNeeUc2bYQqDJQea5M_GpN_la9GeYfHa5qLp2E3Xc-7CyCs7bkHEd8WMH08j2UKbESbAmtMs90UjQtMzNjUCSjqSsQeGnpNmlAJoOTqeo0kA_ygAxYKzPXc3UsqDLVk39cKbeT2Lu5cc7YfUKyIGcXOFT0yx_SI0c7FAzmmolEjLeOKa2WyglWyqg9L_pmZ-tQBsNeg6bnl1X7pvSgVf_VtD3VdRt7ZB6d0m8KkG4QG_ZOsyennTafsPFoK0J-tqg00Gctf_uhsXZP2KfOOwp1RAx3dC3IRKv7CyLlBfW8yIMyEe46RCBCb6SDKSGRfCAlB75fIcZSIdMzy93GoJYwcuobn65nvlCxGWL7aJLa9yxXADDXS3dLP6WambUZRqWPQLa3uf9f1TKzUiye5qLhouztT76QWjrAch7XowsWbdNFLwlQkTA7Arvsp53u0LGtbXACseuRmwLBKYUVyegYeXItBrVsvh9H_c8ulU8K6r-fUvu4EoBYGvyCO7SMPzQXE0lztNBrbym3llXJmko7T2B4i3Gdv4Kc-GsSeU15eUyHQeRYIeHKj-yzULms8BtngaCXOLVp3jfVF3lavxQCvIpLifJlPkJPdOMxmJjP9K0-F05But1MRXzhVzcMB_aLXx0TR-di3kcg_7IcDAZjXBAwvRPXcXbwLQcmFLv5Jfmp1c8_w4qawOUSsbuorXy0Xin1wsU0rTJI1t2kmlpXTtr9wq1ztpf8PU0uC9GriuYiUB3RKUEQAd_dIAbpgKsd7k_AmTyoQKFmqikQCvIyzPotnVSfFCzuWnvYzTOoEc_2PUybLTIunh_HhGIriORI5OLzjJSpXU67Suvj6DjvLKEaS8HCnqvpFCVACAogYEzJhnHPpkSZVWTF8qGLOwkatan1qFgjs99gkzrVYBFmB7DleKw7ZPIEwB0cgztiA_-9v1_Jkv4q-q0Hp9WZs2prCPvQyzxzFtcohxbolwfokvcoVd79Ygu4lrfoktAxdGmhDRdJu8LPcHYPidCPjKr5z9tjJvJKhHvNXi93UBS7upc4tdi4EcXkkSoqWXE7VhD6vsPfUzYhQ4_FCB8_vYNGrlde4DX-4CC1Y3CwXW0CwWugat0qq7NP2NZgg3pDZT79UUTY5IIHffJRzM35yRr5MoZ-7bra1x- -m8cjUT7pjX6Awi1q7Wby5e23xYqI2S8NG3rSC09aRnjDhi19zMcv-FMJ3KSDnXRyKb5JlX2A_zwjbn0Ot74sqC4m-jCKmweCPGIQMFkfIq-_3RvJ9szdD- -ARnbkx9bNIAyyX-airXqyaJ17EUesdSe_4CM3F1q4dmw1oQjnnFZNdJbwB7vmac3FxJm9L9K1OHbgnMWwvChl5Bqi9B_9IC-KRoFErz2MXbHiSggOsXwOJmNYqgbxDgzYjmbJB5AbQyO4q9g1crTnlus5MzHb98Tju6C-S7]--></g></svg>